<mxfile>
    <diagram id="XjbxBAGiFkINdbAzfDXK" name="Page-1">
        <mxGraphModel dx="1270" dy="689" grid="1" gridSize="10" guides="1" tooltips="1" connect="1" arrows="1" fold="1" page="1" pageScale="1" pageWidth="827" pageHeight="1169" math="0" shadow="0">
            <root>
                <mxCell id="0"/>
                <mxCell id="1" parent="0"/>
                <mxCell id="h6KriZWYU-ATezTupGRv-15" value="" style="rounded=0;whiteSpace=wrap;html=1;dashed=1;" parent="1" vertex="1">
                    <mxGeometry x="210" y="170" width="570" height="300" as="geometry"/>
                </mxCell>
                <mxCell id="h6KriZWYU-ATezTupGRv-5" value="" style="rounded=0;whiteSpace=wrap;html=1;fillColor=#e3c800;strokeColor=#B09500;fontColor=#000000;" parent="1" vertex="1">
                    <mxGeometry x="260" y="320" width="230" height="130" as="geometry"/>
                </mxCell>
                <mxCell id="h6KriZWYU-ATezTupGRv-1" value="Navigateur" style="rounded=0;whiteSpace=wrap;html=1;fillColor=#1ba1e2;strokeColor=#006EAF;fontColor=#ffffff;" parent="1" vertex="1">
                    <mxGeometry x="425" y="40" width="150" height="40" as="geometry"/>
                </mxCell>
                <mxCell id="h6KriZWYU-ATezTupGRv-6" value="Pod" style="text;html=1;strokeColor=none;fillColor=none;align=center;verticalAlign=middle;whiteSpace=wrap;rounded=0;fontColor=#000000;" parent="1" vertex="1">
                    <mxGeometry x="260" y="320" width="40" height="20" as="geometry"/>
                </mxCell>
                <mxCell id="h6KriZWYU-ATezTupGRv-7" value="5959" style="text;html=1;strokeColor=none;fillColor=none;align=center;verticalAlign=middle;whiteSpace=wrap;rounded=0;" parent="1" vertex="1">
                    <mxGeometry x="380" y="300" width="40" height="20" as="geometry"/>
                </mxCell>
                <mxCell id="h6KriZWYU-ATezTupGRv-9" value="NodePort" style="rounded=0;whiteSpace=wrap;html=1;fillColor=#008a00;strokeColor=#005700;fontColor=#ffffff;" parent="1" vertex="1">
                    <mxGeometry x="340" y="200" width="150" height="40" as="geometry"/>
                </mxCell>
                <mxCell id="h6KriZWYU-ATezTupGRv-10" value="31111" style="text;html=1;strokeColor=none;fillColor=none;align=center;verticalAlign=middle;whiteSpace=wrap;rounded=0;" parent="1" vertex="1">
                    <mxGeometry x="374" y="180" width="40" height="20" as="geometry"/>
                </mxCell>
                <mxCell id="h6KriZWYU-ATezTupGRv-12" value="" style="endArrow=classic;html=1;exitX=0.5;exitY=1;exitDx=0;exitDy=0;entryX=0.5;entryY=0;entryDx=0;entryDy=0;" parent="1" source="h6KriZWYU-ATezTupGRv-9" target="h6KriZWYU-ATezTupGRv-5" edge="1">
                    <mxGeometry width="50" height="50" relative="1" as="geometry">
                        <mxPoint x="210" y="330" as="sourcePoint"/>
                        <mxPoint x="260" y="280" as="targetPoint"/>
                        <Array as="points"/>
                    </mxGeometry>
                </mxCell>
                <mxCell id="h6KriZWYU-ATezTupGRv-13" value="" style="endArrow=classic;html=1;entryX=0.5;entryY=0;entryDx=0;entryDy=0;strokeColor=#000000;" parent="1" target="h6KriZWYU-ATezTupGRv-17" edge="1">
                    <mxGeometry width="50" height="50" relative="1" as="geometry">
                        <mxPoint x="375" y="320" as="sourcePoint"/>
                        <mxPoint x="375" y="380" as="targetPoint"/>
                    </mxGeometry>
                </mxCell>
                <mxCell id="h6KriZWYU-ATezTupGRv-16" value="Minikube" style="text;html=1;strokeColor=none;fillColor=none;align=center;verticalAlign=middle;whiteSpace=wrap;rounded=0;" parent="1" vertex="1">
                    <mxGeometry x="210" y="150" width="40" height="20" as="geometry"/>
                </mxCell>
                <mxCell id="h6KriZWYU-ATezTupGRv-17" value="" style="rounded=0;whiteSpace=wrap;html=1;fillColor=#ffff88;strokeColor=#36393d;" parent="1" vertex="1">
                    <mxGeometry x="285" y="350" width="180" height="80" as="geometry"/>
                </mxCell>
                <mxCell id="h6KriZWYU-ATezTupGRv-18" value="Container" style="text;html=1;strokeColor=none;fillColor=none;align=left;verticalAlign=middle;whiteSpace=wrap;rounded=0;fontColor=#000000;" parent="1" vertex="1">
                    <mxGeometry x="285" y="350" width="40" height="20" as="geometry"/>
                </mxCell>
                <mxCell id="16" style="edgeStyle=orthogonalEdgeStyle;rounded=0;orthogonalLoop=1;jettySize=auto;html=1;exitX=1;exitY=0.5;exitDx=0;exitDy=0;entryX=0;entryY=0.5;entryDx=0;entryDy=0;strokeColor=#000000;" parent="1" source="h6KriZWYU-ATezTupGRv-19" target="13" edge="1">
                    <mxGeometry relative="1" as="geometry"/>
                </mxCell>
                <mxCell id="h6KriZWYU-ATezTupGRv-19" value="Node.js API" style="rounded=0;whiteSpace=wrap;html=1;fillColor=#ffff88;align=center;strokeColor=#36393d;fontColor=#000000;" parent="1" vertex="1">
                    <mxGeometry x="295" y="390" width="85" height="30" as="geometry"/>
                </mxCell>
                <mxCell id="h6KriZWYU-ATezTupGRv-20" value="5959" style="text;html=1;strokeColor=none;fillColor=none;align=center;verticalAlign=middle;whiteSpace=wrap;rounded=0;fontColor=#000000;" parent="1" vertex="1">
                    <mxGeometry x="355" y="370" width="40" height="20" as="geometry"/>
                </mxCell>
                <mxCell id="h6KriZWYU-ATezTupGRv-21" value="" style="endArrow=classic;html=1;exitX=0.5;exitY=0;exitDx=0;exitDy=0;entryX=0.5;entryY=0;entryDx=0;entryDy=0;strokeColor=#000000;" parent="1" source="h6KriZWYU-ATezTupGRv-17" target="h6KriZWYU-ATezTupGRv-19" edge="1">
                    <mxGeometry width="50" height="50" relative="1" as="geometry">
                        <mxPoint x="120" y="470" as="sourcePoint"/>
                        <mxPoint x="170" y="420" as="targetPoint"/>
                    </mxGeometry>
                </mxCell>
                <mxCell id="h6KriZWYU-ATezTupGRv-22" value="" style="endArrow=none;dashed=1;html=1;dashPattern=1 3;strokeWidth=2;" parent="1" edge="1">
                    <mxGeometry width="50" height="50" relative="1" as="geometry">
                        <mxPoint x="470" y="120" as="sourcePoint"/>
                        <mxPoint x="530" y="110" as="targetPoint"/>
                    </mxGeometry>
                </mxCell>
                <mxCell id="h6KriZWYU-ATezTupGRv-23" value="" style="endArrow=none;dashed=1;html=1;dashPattern=1 3;strokeWidth=2;" parent="1" edge="1">
                    <mxGeometry width="50" height="50" relative="1" as="geometry">
                        <mxPoint x="470" y="140" as="sourcePoint"/>
                        <mxPoint x="530" y="130" as="targetPoint"/>
                    </mxGeometry>
                </mxCell>
                <mxCell id="h6KriZWYU-ATezTupGRv-24" value="" style="endArrow=classic;html=1;exitX=0.5;exitY=1;exitDx=0;exitDy=0;" parent="1" source="h6KriZWYU-ATezTupGRv-1" edge="1">
                    <mxGeometry width="50" height="50" relative="1" as="geometry">
                        <mxPoint x="405" y="140" as="sourcePoint"/>
                        <mxPoint x="500" y="110" as="targetPoint"/>
                    </mxGeometry>
                </mxCell>
                <mxCell id="h6KriZWYU-ATezTupGRv-25" value="" style="endArrow=classic;html=1;entryX=0.289;entryY=0;entryDx=0;entryDy=0;entryPerimeter=0;" parent="1" edge="1">
                    <mxGeometry width="50" height="50" relative="1" as="geometry">
                        <mxPoint x="500" y="140" as="sourcePoint"/>
                        <mxPoint x="499.7299999999999" y="170" as="targetPoint"/>
                    </mxGeometry>
                </mxCell>
                <mxCell id="h6KriZWYU-ATezTupGRv-26" value="minikube service &amp;lt;service-name&amp;gt;" style="text;html=1;strokeColor=none;fillColor=none;align=left;verticalAlign=middle;whiteSpace=wrap;rounded=0;" parent="1" vertex="1">
                    <mxGeometry x="535" y="120" width="190" height="20" as="geometry"/>
                </mxCell>
                <mxCell id="h6KriZWYU-ATezTupGRv-27" value="minikube ip" style="text;html=1;strokeColor=none;fillColor=none;align=left;verticalAlign=middle;whiteSpace=wrap;rounded=0;" parent="1" vertex="1">
                    <mxGeometry x="535" y="100" width="70" height="20" as="geometry"/>
                </mxCell>
                <mxCell id="h6KriZWYU-ATezTupGRv-29" value="" style="endArrow=classic;html=1;exitX=0.508;exitY=-0.007;exitDx=0;exitDy=0;entryX=0.75;entryY=0;entryDx=0;entryDy=0;exitPerimeter=0;" parent="1" source="h6KriZWYU-ATezTupGRv-15" target="h6KriZWYU-ATezTupGRv-9" edge="1">
                    <mxGeometry width="50" height="50" relative="1" as="geometry">
                        <mxPoint x="270" y="240" as="sourcePoint"/>
                        <mxPoint x="320" y="190" as="targetPoint"/>
                    </mxGeometry>
                </mxCell>
                <mxCell id="2" value="" style="rounded=0;whiteSpace=wrap;html=1;fillColor=#e3c800;strokeColor=#B09500;fontColor=#000000;" parent="1" vertex="1">
                    <mxGeometry x="520" y="320" width="230" height="130" as="geometry"/>
                </mxCell>
                <mxCell id="3" value="Pod" style="text;html=1;strokeColor=none;fillColor=none;align=center;verticalAlign=middle;whiteSpace=wrap;rounded=0;fontColor=#000000;" parent="1" vertex="1">
                    <mxGeometry x="520" y="320" width="40" height="20" as="geometry"/>
                </mxCell>
                <mxCell id="4" value="7474" style="text;html=1;strokeColor=none;fillColor=none;align=center;verticalAlign=middle;whiteSpace=wrap;rounded=0;" parent="1" vertex="1">
                    <mxGeometry x="640" y="300" width="40" height="20" as="geometry"/>
                </mxCell>
                <mxCell id="5" value="" style="endArrow=classic;html=1;entryX=0.5;entryY=0;entryDx=0;entryDy=0;strokeColor=#000000;" parent="1" target="6" edge="1">
                    <mxGeometry width="50" height="50" relative="1" as="geometry">
                        <mxPoint x="635" y="320" as="sourcePoint"/>
                        <mxPoint x="635" y="380" as="targetPoint"/>
                    </mxGeometry>
                </mxCell>
                <mxCell id="6" value="" style="rounded=0;whiteSpace=wrap;html=1;fillColor=#ffff88;strokeColor=#36393d;" parent="1" vertex="1">
                    <mxGeometry x="545" y="350" width="180" height="80" as="geometry"/>
                </mxCell>
                <mxCell id="7" value="Container" style="text;html=1;strokeColor=none;fillColor=none;align=left;verticalAlign=middle;whiteSpace=wrap;rounded=0;fontColor=#000000;" parent="1" vertex="1">
                    <mxGeometry x="545" y="350" width="40" height="20" as="geometry"/>
                </mxCell>
                <mxCell id="8" value="Node.js front" style="rounded=0;whiteSpace=wrap;html=1;fillColor=#ffff88;align=center;strokeColor=#36393d;fontColor=#000000;" parent="1" vertex="1">
                    <mxGeometry x="575" y="390" width="120" height="30" as="geometry"/>
                </mxCell>
                <mxCell id="9" value="7474" style="text;html=1;strokeColor=none;fillColor=none;align=center;verticalAlign=middle;whiteSpace=wrap;rounded=0;fontColor=#000000;" parent="1" vertex="1">
                    <mxGeometry x="640" y="370" width="40" height="20" as="geometry"/>
                </mxCell>
                <mxCell id="12" value="" style="endArrow=classic;html=1;exitX=0.5;exitY=0;exitDx=0;exitDy=0;entryX=0.5;entryY=0;entryDx=0;entryDy=0;strokeColor=#000000;" parent="1" edge="1">
                    <mxGeometry width="50" height="50" relative="1" as="geometry">
                        <mxPoint x="634.66" y="349.9999999999999" as="sourcePoint"/>
                        <mxPoint x="634.66" y="389.9999999999999" as="targetPoint"/>
                    </mxGeometry>
                </mxCell>
                <mxCell id="13" value="Redis" style="rounded=0;whiteSpace=wrap;html=1;fillColor=#ffff88;align=center;strokeColor=#36393d;fontColor=#000000;" parent="1" vertex="1">
                    <mxGeometry x="395" y="390" width="60" height="30" as="geometry"/>
                </mxCell>
                <mxCell id="17" value="NodePort" style="rounded=0;whiteSpace=wrap;html=1;fillColor=#008a00;strokeColor=#005700;fontColor=#ffffff;" vertex="1" parent="1">
                    <mxGeometry x="510" y="200" width="150" height="40" as="geometry"/>
                </mxCell>
                <mxCell id="11" value="32222" style="text;html=1;strokeColor=none;fillColor=none;align=center;verticalAlign=middle;whiteSpace=wrap;rounded=0;" parent="1" vertex="1">
                    <mxGeometry x="585" y="180" width="40" height="20" as="geometry"/>
                </mxCell>
                <mxCell id="18" value="" style="endArrow=classic;html=1;exitX=0.508;exitY=-0.005;exitDx=0;exitDy=0;entryX=0.25;entryY=0;entryDx=0;entryDy=0;exitPerimeter=0;" edge="1" parent="1" source="h6KriZWYU-ATezTupGRv-15" target="17">
                    <mxGeometry width="50" height="50" relative="1" as="geometry">
                        <mxPoint x="509.56000000000006" y="177.90000000000003" as="sourcePoint"/>
                        <mxPoint x="425" y="210" as="targetPoint"/>
                    </mxGeometry>
                </mxCell>
                <mxCell id="19" value="" style="endArrow=classic;html=1;exitX=0.5;exitY=1;exitDx=0;exitDy=0;entryX=0.5;entryY=0;entryDx=0;entryDy=0;" edge="1" parent="1" source="17" target="2">
                    <mxGeometry width="50" height="50" relative="1" as="geometry">
                        <mxPoint x="425" y="250" as="sourcePoint"/>
                        <mxPoint x="385" y="330" as="targetPoint"/>
                        <Array as="points"/>
                    </mxGeometry>
                </mxCell>
            </root>
        </mxGraphModel>
    </diagram>
</mxfile>
